<svg xmlns="http://www.w3.org/2000/svg" width="163.839" height="163.839" fill-rule="evenodd" clip-rule="evenodd" image-rendering="optimizeQuality" shape-rendering="geometricPrecision" text-rendering="geometricPrecision" viewBox="0 0 4335 4335" id="bitcoin"><path fill="#b39451" d="M76 948h4183v2379H76V948zm93 93h4005v2201H169V1041z"></path><circle cx="2167" cy="2138" r="897" fill="#fefefe"></circle><path fill="#b39451" d="M1790 1779h211v-167h101l2 166 74 1v-167h101l1 170c161 13 299 96 248 249-16 47-43 68-76 96l14 9c7 3 12 4 20 8 102 47 125 161 88 264-41 114-147 147-294 147v171h-101l-2-170-73-1v170h-101l-1-171h-203l4-110c141-1 121 43 121-285v-200c0-39 6-64-31-71-24-4-73-2-101-2l1-107zm301-274c-199 25-343 123-433 232-100 120-179 298-152 512 42 340 349 627 739 582 342-39 627-346 586-736-38-367-379-636-740-590z"></path><path fill="#fcfdfe" d="M2105 2207c110-7 293-19 281 114-11 125-162 118-284 111l2-224zm-2-313c100-6 239-9 233 106-7 115-122 106-233 99v-206zm-314-8c27 0 77-3 101 2 37 7 32 31 31 71v200c0 328 20 284-121 285l-4 110h203l1 171h101v-170l73 1 2 170h101v-171c147 0 254-33 294-147 37-102 14-216-88-264-8-4-13-5-20-8l-14-9c34-27 61-49 76-96 51-153-87-236-248-249l-1-170h-101v167l-74-1-2-166h-101v167h-211l-1 107z"></path><path fill="#b39451" d="M1319 2232c-16-187 34-359 124-511 72-122 201-244 330-307 226-111 456-134 698-42 117 44 187 98 266 162 60 48 153 169 185 238 107 231 137 448 42 699-44 117-97 186-162 266-51 63-166 149-238 184-106 52-195 84-330 96-129 11-258-12-368-53-54-21-98-44-143-70-227-132-381-394-403-660zm1776 5c30-311-118-615-353-802-139-110-312-179-501-195-145-12-284 14-404 57-118 43-198 102-289 175-36 29-81 82-112 120-110 137-179 314-195 502-24 273 74 499 233 692 24 29 91 88 120 112 251 198 601 255 905 138 163-63 295-161 401-296 115-145 176-307 195-504z"></path><path fill="#b39451" d="M2103 2432c121 7 273 14 284-111 11-133-172-120-281-114l-2 224zM2103 2100c110 6 226 16 233-99s-133-112-233-106v206z"></path><path fill="#9f7d32" d="M2181 1611h96l1 170c161 13 299 96 248 249-16 47-43 68-76 96l14 9c7 3 12 4 20 8 102 47 125 161 88 264-41 114-147 147-294 147v171h-97v111c21-1 42-2 63-4 342-39 627-346 586-736-35-336-324-590-649-595v112z"></path><path fill="#9f7d32" d="M2181 1315c95 1 191 20 289 57 117 44 187 98 266 162 60 48 153 169 185 238 107 231 137 448 42 699-44 117-97 186-162 266-51 63-166 149-238 184-106 52-195 84-330 96l-51 3v79c107-1 215-21 317-61 163-63 295-161 401-296 115-145 176-307 195-504 30-311-118-615-353-802-139-110-312-179-501-195-20-2-40-3-59-3v78z"></path><path fill="#9f7d32" d="M2181 2435c100 1 197-15 205-114 9-105-103-119-205-117v231zM2181 2103c81 0 149-15 155-103 5-87-73-106-155-108v211z"></path><path fill="#b39451" fill-rule="nonzero" d="M463 1543h-58v-219c-21 20-46 35-75 44v-53c15-5 32-14 49-28 18-14 30-30 37-48h47v305zm185-305c29 0 52 11 69 32 20 25 30 66 30 124s-10 99-30 124c-16 21-39 31-69 31-29 0-53-11-71-34s-27-63-27-122c0-57 10-98 30-124 16-21 39-31 69-31zm0 48c-7 0-13 2-18 7-5 4-10 12-13 24-4 15-6 40-6 76s2 60 5 74c4 13 8 22 13 27 5 4 12 7 18 7 7 0 13-2 19-7 5-4 10-12 13-24 4-15 6-40 6-76s-2-60-5-73c-4-13-8-22-13-27s-12-7-18-7zm235-48c29 0 52 11 69 32 20 25 30 66 30 124s-10 99-30 124c-16 21-39 31-69 31-29 0-53-11-71-34s-27-63-27-122c0-57 10-98 30-124 16-21 39-31 69-31zm0 48c-7 0-13 2-18 7-5 4-10 12-13 24-4 15-6 40-6 76s2 60 5 74c4 13 8 22 13 27 5 4 12 7 18 7 7 0 13-2 19-7 5-4 10-12 13-24 4-15 6-40 6-76s-2-60-5-73c-4-13-8-22-13-27s-12-7-18-7zM3545 3130h-58v-219c-21 20-46 35-75 44v-53c15-5 32-14 49-28 18-14 30-30 37-48h47v305zm185-305c29 0 52 11 69 32 20 25 30 66 30 124s-10 99-30 124c-16 21-39 31-69 31-29 0-53-11-71-34s-27-63-27-122c0-57 10-98 30-124 16-21 39-31 69-31zm0 48c-7 0-13 2-18 7-5 4-10 12-13 24-4 15-6 40-6 76s2 60 5 74c4 13 8 22 13 27 5 4 12 7 18 7 7 0 13-2 19-7 5-4 10-12 13-24 4-15 6-40 6-76s-2-60-5-73c-4-13-8-22-13-27s-12-7-18-7zm235-48c29 0 52 11 69 32 20 25 30 66 30 124s-10 99-30 124c-16 21-39 31-69 31-29 0-53-11-71-34s-27-63-27-122c0-57 10-98 30-124 16-21 39-31 69-31zm0 48c-7 0-13 2-18 7-5 4-10 12-13 24-4 15-6 40-6 76s2 60 5 74c4 13 8 22 13 27 5 4 12 7 18 7 7 0 13-2 19-7 5-4 10-12 13-24 4-15 6-40 6-76s-2-60-5-73c-4-13-8-22-13-27s-12-7-18-7z"></path><g><path fill="#b39451" d="M330 2870h593v68H330zM330 3040h593v68H330z"></path></g><g><path fill="#b39451" d="M3471 1238h593v68h-593zM3471 1408h593v68h-593z"></path></g></svg>