<svg xmlns="http://www.w3.org/2000/svg" data-name="Layer 3" viewBox="0 0 64 64" id="chainlink-coin"><circle cx="26" cy="26" r="24" fill="#225980"></circle><circle cx="26" cy="26" r="20.939" fill="#419bd7"></circle><circle cx="26" cy="26" r="20" fill="#26669e"></circle><path fill="#18435e" d="M12.061,37.939a25.893,25.893,0,0,0,1.452,8.56,24,24,0,0,0,32.919-33.09,25.938,25.938,0,0,0-34.371,24.53Z"></path><rect width="7" height="2" x="12" y="25" fill="#7fcdf2"></rect><path fill="#7fcdf2" d="M22,23H17a1,1,0,0,1-1-1V18h2v3h4Z"></path><rect width="2" height="7" x="25" y="13" fill="#7fcdf2"></rect><circle cx="12" cy="25.939" r="2" fill="#f9d161"></circle><circle cx="26" cy="11.939" r="2" fill="#f9d161"></circle><circle cx="17" cy="16.939" r="2" fill="#f9d161"></circle><path fill="#4aaee3" d="M19 25H15.522q-.562.975-1.042 2H19zM22 23V21H18.365q-.816.944-1.539 1.965A.925.925 0 0 0 17 23zM27 20V14.447q-1.026.482-2 1.049V20z"></path><circle cx="38" cy="38" r="24" fill="#345ec9"></circle><circle cx="38" cy="38" r="20.939" fill="#2950a5"></circle><circle cx="38" cy="38" r="20" fill="#4774d6"></circle><path fill="#fff" d="M38,22.59l-13,8v15l13,8,13-8v-15Zm9,21-9,5-9-5v-11l9-5,9,5Z"></path></svg>