<svg xmlns="http://www.w3.org/2000/svg" version="1.1" width="146" height="30"><polyline points=" 0,2.255986892155132 0.9668874172185431,4.9945269331968305 1.9337748344370862,3.1476088667781745 2.9006622516556293,3.85738327689948 3.8675496688741724,3.947401928445803 4.8344370860927155,6.02841446934103 5.801324503311259,5.111557642439518 6.768211920529802,4.524912406396691 7.735099337748345,4.572083182031825 8.701986754966889,3.1029061043641306 9.668874172185431,1.849948604401071 10.635761589403973,3.6013949830270775 11.602649006622517,2.4103243715656646 12.569536423841061,0.5737982174227234 13.536423841059603,2.4418443351824664 14.503311258278146,3.2137971463581856 15.47019867549669,3.113486864123278 16.437086092715234,3.441848655950121 17.403973509933778,3.088355607639066 18.370860927152318,3.5817227639791263 19.337748344370862,3.456387688935422 20.304635761589406,3.5597204657419788 21.271523178807946,4.053539778074089 22.23841059602649,3.786143679532085 23.205298013245034,4.126490618609541 24.17218543046358,2.0266839058856654 25.139072847682122,2.1973700411591643 26.105960264900663,2.4024700163580768 27.072847682119207,0 28.03973509933775,3.165012981926072 29.00662251655629,2.1317801819240287 29.973509933774835,2.091961576842177 30.94039735099338,5.036750840740609 31.907284768211923,4.637864877121366 32.87417218543047,4.93612338528299 33.84105960264901,3.7735176741282004 34.807947019867555,5.249924764759882 35.77483443708609,4.345361429823512 36.741721854304636,4.132544853225184 37.70860927152318,4.3365081982408675 38.675496688741724,3.9348143548564423 39.64238410596027,3.5416444943992964 40.60927152317881,3.260196714541884 41.576158940397356,3.3937821103648105 42.54304635761589,2.0176013884478685 43.50993377483444,3.0555025584577855 44.47682119205298,3.730833116115953 45.443708609271525,2.5729193245306874 46.41059602649007,2.9281501059070614 47.37748344370861,2.6361106432740726 48.34437086092716,3.979603314771733 49.3112582781457,3.3580284515622196 50.278145695364245,2.4034468089410446 51.24503311258278,2.7078826895235757 52.211920529801326,1.8659153949986695 53.17880794701987,1.642547689287813 54.145695364238414,3.8382336320067303 55.11258278145696,5.498480385291298 56.0794701986755,6.049354036295831 57.046357615894046,7.961586967443342 58.01324503311258,9.37925713140034 58.980132450331126,10.575690993050973 59.94701986754967,8.343548899454134 60.913907284768214,7.934463789909625 61.88079470198676,8.599356165321826 62.8476821192053,9.309900400488555 63.814569536423846,11.517348113570087 64.78145695364239,10.359257245835899 65.74834437086093,11.30275626604147 66.71523178807948,11.403690338138276 67.68211920529802,14.95035957315091 68.64900662251657,24.9681886669251 69.61589403973511,27.309673951764683 70.58278145695364,28.41974769494002 71.54966887417218,30 72.51655629139073,29.540019607047146 73.48344370860927,27.71005177992934 74.45033112582782,27.992047977670023 75.41721854304636,27.491614211733797 76.3841059602649,29.32003587225967 77.35099337748345,26.195791863340514 78.31788079470199,27.323649645960845 79.28476821192054,27.575199472550914 80.25165562913908,24.68899119857326 81.21854304635762,27.028568395766502 82.18543046357617,26.763564467018142 83.15231788079471,28.12141941686016 84.11920529801326,26.017860206981926 85.08609271523179,27.120695940997447 86.05298013245033,29.57934847108472 87.01986754966887,28.883562131974053 87.98675496688742,20.831327400465284 88.95364238410596,21.79361771779775 89.9205298013245,14.21829492610019 90.88741721854305,10.415228747225708 91.8543046357616,8.648997213362051 92.82119205298014,5.7531737194414845 93.78807947019868,4.030120068174323 94.75496688741723,4.952585787293167 95.72185430463577,3.641356293225563 96.68874172185431,3.6286797457830637 97.65562913907286,5.444625975954381 98.6225165562914,7.561702001118174 99.58940397350995,7.370540335513688 100.55629139072849,6.8507980583239885 101.52317880794702,8.41080046248852 102.49006622516556,9.41168548410161 103.45695364238411,9.77581069649461 104.42384105960265,15.252431733002986 105.3907284768212,13.63927980967685 106.35761589403974,9.798744397849209 107.32450331125828,10.7334110438582 108.29139072847683,11.69059947648828 109.25827814569537,14.0591136087524 110.22516556291392,17.44480562919757 111.19205298013246,14.288658867487431 112.158940397351,13.708340804700818 113.12582781456955,15.258625222763587 114.09271523178809,16.60595443201042 115.05960264900664,17.101131675166926 116.02649006622516,17.95898324828566 116.99337748344371,16.520343634190837 117.96026490066225,15.613446562506029 118.9271523178808,15.670084599425792 119.89403973509934,18.670160349303565 120.86092715231788,16.032172687509195 121.82781456953643,17.104050920968803 122.79470198675497,15.160710688663807 123.76158940397352,15.74400781251963 124.72847682119206,15.342653209412195 125.6953642384106,16.23099083843909 126.66225165562915,14.981338207363414 127.62913907284769,14.409866488684619 128.59602649006624,15.372258344470325 129.56291390728478,12.603976080944058 130.52980132450332,10.316679388257157 131.49668874172187,13.791936262393548 132.4635761589404,14.294290412692156 133.43046357615896,14.93645019049626 134.3973509933775,12.564173410714734 135.36423841059604,13.8436134154041 136.3311258278146,12.164782223973688 137.29801324503313,15.308011669200884 138.26490066225168,16.023243644934517 139.23178807947022,15.128013789000521 140.19867549668874,14.878709227067239 141.16556291390728,16.48142167012024 142.13245033112582,14.620207961834401 143.09933774834437,14.509293493703622 144.0662251655629,14.582715581703434 145.03311258278146,14.041443677990097" stroke="#e64b60" stroke-linecap="round" stroke-width="1.4" fill="none"></polyline></svg>