<svg xmlns="http://www.w3.org/2000/svg" width="512" height="512" id="ripple"><defs><linearGradient id="a" x1=".5" x2=".5" y2="1" gradientUnits="objectBoundingBox"><stop offset="0" stop-color="#ffb508"></stop><stop offset="1" stop-color="#fc2a02"></stop></linearGradient></defs><g transform="translate(-15631 -2015)"><circle cx="256" cy="256" r="256" fill="url(#a)" data-name="Ellipse 22-2" transform="translate(15631 2015)"></circle><path fill="#fff" d="M15931.338 2131.415a62.647 62.647 0 0 0-30.968 53.952c0 11.492 4.562 22.985 10.352 33.249 4.562 9.211 6.93 25.265-9.211 33.249-11.492 6.93-26.406 2.281-33.249-9.211-6.93-9.211-14.914-18.335-25.265-25.265a60.1 60.1 0 0 0-62.023 0 62.482 62.482 0 0 0 0 107.9 60.1 60.1 0 0 0 62.023 0c10.352-5.7 18.335-14.914 24.125-25.265 4.562-8.071 17.2-18.335 33.249-9.211 11.492 6.93 14.914 21.844 9.211 33.249-5.7 10.352-9.211 21.844-9.211 33.249a62.647 62.647 0 0 0 30.968 53.952 60.1 60.1 0 0 0 62.023 0 62.482 62.482 0 0 0 0-107.9c-10.352-5.7-21.844-8.071-34.477-8.071-10.352 0-24.125-6.93-24.125-24.125 0-13.773 10.352-24.125 24.125-24.125 11.492 0 24.125-2.281 34.477-8.071a62.482 62.482 0 0 0 0-107.9c-9.211-5.7-20.7-8.071-30.968-8.071-10.44.351-21.932 2.632-31.055 8.422" data-name="Path 354"></path></g></svg>